<svg xmlns="http://www.w3.org/2000/svg" xmlns:xlink="http://www.w3.org/1999/xlink" width="54px" height="51px" viewBox="0 0 54 51" version="1.1">
    <title>app-store-connect</title>
    <g id="Page-1" stroke="none" stroke-width="1" fill="none" fill-rule="evenodd">
        <g id="app-store-connect" fill="#0071E3" fill-rule="nonzero">
            <path d="M53.3360405,34.1825164 C53.7666271,34.7805766 54,35.5129074 54,36.2645592 C54,37.0168832 53.7666271,37.7482166 53.3360405,38.346613 C52.9026335,38.9483266 52.3034573,39.3728019 51.6168592,39.5760427 C51.2910046,39.6726658 50.963277,39.7156456 50.6273681,39.7363024 C50.2571727,39.7586255 49.8876019,39.7566261 49.5174066,39.7566261 L45.9953682,39.7566261 L48.6792059,44.6816975 C48.8644596,45.0212082 49.0509728,45.3593865 49.2173556,45.7102253 C49.3689582,46.0287454 49.4972762,46.3505973 49.5812535,46.6981043 C49.7583366,47.4294355 49.7111539,48.1917517 49.4359484,48.8900974 C49.1620023,49.5841122 48.6801424,50.1641791 48.0655724,50.5400065 C47.4506687,50.916167 46.7360709,51.0680973 46.0315384,50.9718081 C45.3229152,50.875519 44.6765778,50.5376742 44.1670413,50.0095835 C43.9248626,49.7586988 43.7257651,49.4798263 43.5411465,49.181964 C43.3376462,48.8534484 43.1545886,48.5132709 42.9693348,48.17376 L31.3297512,26.8178989 C30.2059568,24.7558494 29.7596535,22.3456218 30.1248107,19.9963712 C30.3767425,18.376112 31.0337802,16.5926006 32.5023,15 L42.1886941,32.7721638 L49.5174066,32.7721638 C49.8876019,32.7721638 50.2571727,32.7705051 50.6273681,32.7928294 C50.963277,32.8131477 51.2910046,32.8564625 51.6168592,32.9530891 C52.3034573,33.1563275 52.9026335,33.5807916 53.3360405,34.1825164 Z M20.052084,31.8444123 L30.0309616,31.8444123 C33.2615183,31.8444123 35.6077743,35.1267486 34.6628525,38.3797383 C34.569502,38.7023035 34.4741988,38.9176903 34.4352897,39 L4.61989833,39 C4.23836483,39 3.85715535,39.002001 3.47594474,38.9791311 C3.12942061,38.9579684 2.79197183,38.9135937 2.45581997,38.8149459 C1.74850828,38.606727 1.13066282,38.1718546 0.684297298,37.5550581 C0.240525251,36.942349 0,36.1931024 0,35.4223508 C0,34.6522881 0.240525251,33.9020194 0.684297298,33.2893103 C1.13066282,32.6728469 1.74850828,32.2379858 2.45581997,32.0297693 C2.79197183,31.930776 3.12942061,31.8864001 3.47594474,31.8655841 C3.85715535,31.842713 4.23836483,31.8444123 4.61989833,31.8444123 L12.2051911,31.8444123 L23.2745415,11.655451 L20.4332967,6.4732059 C20.2423687,6.12537445 20.0501424,5.77892091 19.8786632,5.41948175 C19.722417,5.09316666 19.5901575,4.76343017 19.5036079,4.40741254 C19.3211118,3.65816573 19.3700614,2.87717263 19.6536966,2.16207176 C19.935712,1.45071392 20.4319987,0.856776999 21.0657261,0.47140127 C21.6991318,0.0863698624 22.4359399,-0.0696174513 23.1623743,0.0286870076 C23.8923814,0.128013212 24.5588493,0.473789456 25.0836604,1.01481952 C25.3332682,1.27184393 25.538453,1.557549 25.7290594,1.86304822 C25.9384712,2.19892727 26.1274467,2.54743615 26.3180531,2.89561192 L27.197816,4.49990729 L28.0775898,2.89561192 C28.268518,2.54778059 28.4575046,2.19927172 28.6669054,1.86304822 C28.8571901,1.557549 29.0626966,1.27184393 29.3116499,1.01481952 C29.8371155,0.473789456 30.5035834,0.128013212 31.2335903,0.0290198602 C31.9593814,-0.0696174513 32.6968329,0.0863698624 33.3302387,0.47140127 C33.9639661,0.856776999 34.4599311,1.45071392 34.7419465,2.16207176 C35.0259144,2.87717263 35.0748642,3.65816573 34.8920351,4.40741254 C34.8058073,4.76343017 34.673226,5.09316666 34.5173127,5.41948175 C34.3455006,5.77892091 34.1532744,6.12537445 33.9626679,6.4732059 L20.052084,31.8444123 Z M6.70122831,41.2931377 C10.9332476,40.0804798 12.8044927,43.001102 13,43.3306326 L10.4935693,48.1418421 C10.3144739,48.485187 10.1372008,48.8292064 9.94046839,49.1614321 C9.76197967,49.4626582 9.56950493,49.7446801 9.33567656,49.9983982 C8.84308555,50.5324529 8.21761695,50.8741131 7.53285503,50.9714898 C6.85174177,51.0688663 6.16120286,50.9152202 5.56644552,50.5348116 C4.97199104,50.1547398 4.50646263,49.568122 4.241923,48.8662693 C3.97555995,48.1600369 3.92994893,47.3891114 4.1011401,46.6495211 C4.18232573,46.2980895 4.30638543,45.9726027 4.45264234,45.6504855 C4.61410308,45.2956845 4.79441607,44.953687 4.97290372,44.610342 L6.70122831,41.2931377 Z" id="Shape"/>
        </g>
    </g>
</svg>